<?xml version="1.0" encoding="UTF-8" standalone="no"?>
<!DOCTYPE svg PUBLIC "-//W3C//DTD SVG 1.1//EN"
 "http://www.w3.org/Graphics/SVG/1.1/DTD/svg11.dtd">
<!-- Generated by graphviz version 9.0.0 (20230911.1827)
 -->
<!-- Pages: 1 -->
<svg width="213pt" height="149pt"
 viewBox="0.00 0.00 213.12 148.77" xmlns="http://www.w3.org/2000/svg" xmlns:xlink="http://www.w3.org/1999/xlink">
<g id="graph0" class="graph" transform="scale(1 1) rotate(0) translate(4 144.77)">
<polygon fill="white" stroke="none" points="-4,4 -4,-144.77 209.12,-144.77 209.12,4 -4,4"/>
<!-- delta_x -->
<g id="node1" class="node">
<title>delta_x</title>
<polygon fill="lightgray" stroke="black" points="41.5,-140.77 0,-140.77 0,-122.27 41.5,-122.27 41.5,-140.77"/>
<text text-anchor="middle" x="20.75" y="-128.22" font-family="Times,serif" font-size="9.00">delta_x</text>
</g>
<!-- delta_y_top -->
<g id="node2" class="node">
<title>delta_y_top</title>
<polygon fill="lightgray" stroke="black" points="116.38,-140.77 59.12,-140.77 59.12,-122.27 116.38,-122.27 116.38,-140.77"/>
<text text-anchor="middle" x="87.75" y="-128.22" font-family="Times,serif" font-size="9.00">delta_y_top</text>
</g>
<!-- Jump or Not -->
<g id="node4" class="node">
<title>Jump or Not</title>
<ellipse fill="lightblue" stroke="black" cx="128.75" cy="-43.13" rx="43.13" ry="43.13"/>
<text text-anchor="middle" x="128.75" y="-39.83" font-family="Times,serif" font-size="9.00">Jump or Not</text>
</g>
<!-- delta_y_top&#45;&gt;Jump or Not -->
<g id="edge1" class="edge">
<title>delta_y_top&#45;&gt;Jump or Not</title>
<path fill="none" stroke="green" stroke-width="1.09" d="M91.83,-121.92C95.21,-114.8 100.31,-104.05 105.65,-92.8"/>
<polygon fill="green" stroke="green" stroke-width="1.09" points="108.75,-94.44 109.87,-83.91 102.42,-91.44 108.75,-94.44"/>
</g>
<!-- delta_y_bottom -->
<g id="node3" class="node">
<title>delta_y_bottom</title>
<polygon fill="lightgray" stroke="black" points="205.12,-140.77 134.38,-140.77 134.38,-122.27 205.12,-122.27 205.12,-140.77"/>
<text text-anchor="middle" x="169.75" y="-128.22" font-family="Times,serif" font-size="9.00">delta_y_bottom</text>
</g>
<!-- delta_y_bottom&#45;&gt;Jump or Not -->
<g id="edge2" class="edge">
<title>delta_y_bottom&#45;&gt;Jump or Not</title>
<path fill="none" stroke="green" stroke-width="0.67" d="M165.67,-121.92C162.22,-114.65 156.98,-103.61 151.52,-92.11"/>
<polygon fill="green" stroke="green" stroke-width="0.67" points="154.8,-90.86 147.35,-83.33 148.48,-93.87 154.8,-90.86"/>
</g>
</g>
</svg>
